<?xml version="1.0" encoding="UTF-8"?>
<svg width="288px" height="151px" viewBox="0 0 288 151" version="1.1" xmlns="http://www.w3.org/2000/svg" xmlns:xlink="http://www.w3.org/1999/xlink">
    <!-- Generator: Sketch 60.1 (88133) - https://sketch.com -->
    <title>Group</title>
    <desc>Created with Sketch.</desc>
    <g id="Logo" stroke="none" stroke-width="1" fill="none" fill-rule="evenodd">
        <g id="Artboard" transform="translate(-54.000000, -126.000000)">
            <g id="Group" transform="translate(58.000000, 130.000000)">
                <g id="Fills" transform="translate(8.000000, 7.000000)">
                    <path d="M22,140 C23.4666667,140 24.6333333,139.533333 25.5,138.6 C26.3666667,137.666667 26.8,136.533333 26.8,135.2 L26.8,135.2 L26.8,49.2 L54.6,102 C56.3333333,104.933333 58.6,106.4 61.4,106.4 L61.4,106.4 L69.8,106.4 C72.7333333,106.4 74.9333333,104.933333 76.4,102 L76.4,102 L104.2,49.2 L104.2,135.2 C104.2,136.533333 104.666667,137.666667 105.6,138.6 C106.533333,139.533333 107.666667,140 109,140 L109,140 L126.2,140 C127.666667,140 128.866667,139.566667 129.8,138.7 C130.733333,137.833333 131.2,136.666667 131.2,135.2 L131.2,135.2 L131.2,5 C131.2,3.53333333 130.733333,2.33333333 129.8,1.4 C128.866667,0.466666667 127.666667,0 126.2,0 L126.2,0 L110.2,0 C107.666667,0 105.666667,1.26666667 104.2,3.8 L104.2,3.8 L65.6,75.4 L27,3.8 C25.5333333,1.26666667 23.5333333,0 21,0 L21,0 L4.8,0 C3.33333333,0 2.16666667,0.466666667 1.3,1.4 C0.433333333,2.33333333 -9.9475983e-14,3.53333333 -9.9475983e-14,5 L-9.9475983e-14,5 L-9.9475983e-14,135.2 C-9.9475983e-14,136.533333 0.466666667,137.666667 1.4,138.6 C2.33333333,139.533333 3.46666667,140 4.8,140 L4.8,140 L22,140 Z" id="M---Fill" fill="#BAE0F2"></path>
                    <path d="M228.1,140 C243.166667,140 254.9,136.2 263.3,128.6 C271.7,121 275.9,111 275.9,98.6 C275.9,91.2666667 273.966667,84.7333333 270.1,79 C266.233333,73.2666667 261.5,69.1333333 255.9,66.6 C260.433333,64.4666667 264.4,60.9666667 267.8,56.1 C271.2,51.2333333 272.9,45.3333333 272.9,38.4 C272.9,26.5333333 269.033333,17.1666667 261.3,10.3 C253.566667,3.43333333 241.9,0 226.3,0 L226.3,0 L168.3,0 C166.833333,0 165.666667,0.466666667 164.8,1.4 C163.933333,2.33333333 163.5,3.53333333 163.5,5 L163.5,5 L163.5,135.2 C163.5,136.533333 163.966667,137.666667 164.9,138.6 C165.833333,139.533333 166.966667,140 168.3,140 L168.3,140 L228.1,140 Z M222.7,57.4 L191.7,57.4 L191.7,21.4 L222.7,21.4 C229.633333,21.4 234.9,22.9333333 238.5,26 C242.1,29.0666667 243.9,33.4 243.9,39 C243.9,44.6 242.066667,49.0666667 238.4,52.4 C234.733333,55.7333333 229.5,57.4 222.7,57.4 L222.7,57.4 Z M224.7,118.6 L191.7,118.6 L191.7,78.2 L224.7,78.2 C231.5,78.2 236.866667,80.1 240.8,83.9 C244.733333,87.7 246.7,92.5333333 246.7,98.4 C246.7,104.266667 244.766667,109.1 240.9,112.9 C237.033333,116.7 231.633333,118.6 224.7,118.6 L224.7,118.6 Z" id="B---Fill" fill="#F2B8B8"></path>
                </g>
                <g id="Stroke" fill-rule="nonzero" stroke="#1A1A1A" stroke-width="8">
                    <path d="M22,140 C23.4666667,140 24.6333333,139.533333 25.5,138.6 C26.3666667,137.666667 26.8,136.533333 26.8,135.2 L26.8,135.2 L26.8,49.2 L54.6,102 C56.3333333,104.933333 58.6,106.4 61.4,106.4 L61.4,106.4 L69.8,106.4 C72.7333333,106.4 74.9333333,104.933333 76.4,102 L76.4,102 L104.2,49.2 L104.2,135.2 C104.2,136.533333 104.666667,137.666667 105.6,138.6 C106.533333,139.533333 107.666667,140 109,140 L109,140 L126.2,140 C127.666667,140 128.866667,139.566667 129.8,138.7 C130.733333,137.833333 131.2,136.666667 131.2,135.2 L131.2,135.2 L131.2,5 C131.2,3.53333333 130.733333,2.33333333 129.8,1.4 C128.866667,0.466666667 127.666667,0 126.2,0 L126.2,0 L110.2,0 C107.666667,0 105.666667,1.26666667 104.2,3.8 L104.2,3.8 L65.6,75.4 L27,3.8 C25.5333333,1.26666667 23.5333333,0 21,0 L21,0 L4.8,0 C3.33333333,0 2.16666667,0.466666667 1.3,1.4 C0.433333333,2.33333333 -9.9475983e-14,3.53333333 -9.9475983e-14,5 L-9.9475983e-14,5 L-9.9475983e-14,135.2 C-9.9475983e-14,136.533333 0.466666667,137.666667 1.4,138.6 C2.33333333,139.533333 3.46666667,140 4.8,140 L4.8,140 L22,140 Z" id="M---Stroke"></path>
                    <path d="M228.1,140 C243.166667,140 254.9,136.2 263.3,128.6 C271.7,121 275.9,111 275.9,98.6 C275.9,91.2666667 273.966667,84.7333333 270.1,79 C266.233333,73.2666667 261.5,69.1333333 255.9,66.6 C260.433333,64.4666667 264.4,60.9666667 267.8,56.1 C271.2,51.2333333 272.9,45.3333333 272.9,38.4 C272.9,26.5333333 269.033333,17.1666667 261.3,10.3 C253.566667,3.43333333 241.9,0 226.3,0 L226.3,0 L168.3,0 C166.833333,0 165.666667,0.466666667 164.8,1.4 C163.933333,2.33333333 163.5,3.53333333 163.5,5 L163.5,5 L163.5,135.2 C163.5,136.533333 163.966667,137.666667 164.9,138.6 C165.833333,139.533333 166.966667,140 168.3,140 L168.3,140 L228.1,140 Z M222.7,57.4 L191.7,57.4 L191.7,21.4 L222.7,21.4 C229.633333,21.4 234.9,22.9333333 238.5,26 C242.1,29.0666667 243.9,33.4 243.9,39 C243.9,44.6 242.066667,49.0666667 238.4,52.4 C234.733333,55.7333333 229.5,57.4 222.7,57.4 L222.7,57.4 Z M224.7,118.6 L191.7,118.6 L191.7,78.2 L224.7,78.2 C231.5,78.2 236.866667,80.1 240.8,83.9 C244.733333,87.7 246.7,92.5333333 246.7,98.4 C246.7,104.266667 244.766667,109.1 240.9,112.9 C237.033333,116.7 231.633333,118.6 224.7,118.6 L224.7,118.6 Z" id="B---Stroke"></path>
                </g>
            </g>
        </g>
    </g>
</svg>